<svg width="400" height="400" viewBox="0 0 400 400" fill="none" xmlns="http://www.w3.org/2000/svg">
<path fill-rule="evenodd" clip-rule="evenodd" d="M228.239 119.016C218.659 112.918 211.982 106.996 206.263 101.882C197.633 94.1632 194.694 90.3162 182.96 78.2082C178.311 73.4102 171.702 66.7182 163.448 58.7922C161.959 57.3622 159.271 57.0322 157.482 58.0632C136.282 70.2852 115.082 82.5072 93.8823 94.7282C91.9473 95.8432 90.9323 98.4922 91.6263 100.614L103.888 138.13C108.692 136.97 112.716 135.902 118.382 134.04C120.826 133.237 123.405 132.383 126.13 131.409C123.504 123.323 120.879 115.236 118.253 107.15L157.684 84.5582C165.506 94.0272 172.518 101.619 177.895 107.182C186.064 115.633 191.794 121.515 200.612 128.44C209.609 135.506 217.167 140.001 219.973 141.627C227.669 146.088 238.506 151.504 252.305 155.862C253.674 148.03 255.448 141.452 257.789 133.231C245.122 128.855 235.276 123.495 228.239 119.016Z" fill="#93C9FE"/>
<path fill-rule="evenodd" clip-rule="evenodd" d="M144.212 134.589C134.141 139.837 125.674 142.658 118.385 145.053C107.386 148.668 102.584 149.29 86.2324 153.398C79.7534 155.025 70.6524 157.402 59.6614 160.588C57.6784 161.162 56.0484 163.325 56.0474 165.389C56.0314 189.86 56.0154 214.331 56.0004 238.802C55.9984 241.034 57.7844 243.237 59.9684 243.698C72.8424 246.411 85.7164 249.124 98.5894 251.837C99.9874 247.097 101.074 243.078 102.295 237.239C102.821 234.722 103.371 232.061 103.89 229.214C95.5744 227.445 87.2584 225.676 78.9434 223.907L79.0924 178.462C91.2054 176.423 101.285 174.146 108.791 172.271C120.195 169.422 128.153 167.401 138.56 163.227C149.178 158.967 156.85 154.67 159.661 153.053C167.372 148.618 177.482 141.942 188.154 132.17C182.056 127.068 177.246 122.243 171.298 116.106C161.174 124.887 151.61 130.734 144.212 134.589Z" fill="#0078E8"/>
<path fill-rule="evenodd" clip-rule="evenodd" d="M115.847 214.811C115.356 226.157 113.566 234.9 111.996 242.41C109.627 253.743 107.765 258.212 103.145 274.428C101.315 280.853 98.8237 289.923 96.0867 301.034C95.5937 303.039 96.6517 305.531 98.4387 306.564C119.536 318.763 140.633 330.962 161.73 343.161C163.791 344.352 166.678 343.802 168.15 341.933C172.951 335.839 178.334 329.54 184.359 323.177C187.795 319.549 191.21 316.142 194.576 312.945C193.073 311.344 191.186 309.402 188.956 307.241C187.413 305.745 185.746 304.191 183.786 302.438C181.869 300.724 179.84 298.916 177.634 297.044C174.485 299.787 171.083 303.078 167.654 306.982C164.91 310.104 162.564 313.147 160.564 315.995C147.471 308.377 134.377 300.76 121.283 293.143C125.573 281.634 128.641 271.766 130.77 264.327C134.005 253.027 136.234 245.124 137.822 234.025C139.443 222.7 139.556 213.907 139.562 210.664C139.577 201.769 138.849 189.675 135.723 175.546C128.256 178.277 121.672 180.03 113.383 182.113C115.927 195.27 116.208 206.477 115.847 214.811Z" fill="#93C9FE"/>
<path fill-rule="evenodd" clip-rule="evenodd" d="M170.799 279.911C180.379 286.009 187.055 291.931 192.774 297.045C201.404 304.764 204.344 308.611 216.078 320.72C220.727 325.517 227.336 332.209 235.59 340.135C237.079 341.565 239.767 341.895 241.555 340.864C262.756 328.642 283.956 316.42 305.156 304.199C307.091 303.084 308.105 300.435 307.412 298.313C303.324 285.808 299.237 273.303 295.15 260.798C290.346 261.957 286.322 263.025 280.655 264.888C278.212 265.69 275.632 266.544 272.908 267.518C275.534 275.604 278.159 283.691 280.785 291.777L241.354 314.369C233.532 304.9 226.52 297.309 221.142 291.745C212.973 283.294 207.244 277.412 198.426 270.487C189.428 263.421 181.871 258.926 179.065 257.3C171.369 252.839 160.532 247.423 146.733 243.065C145.364 250.898 143.59 257.475 141.249 265.696C153.916 270.072 163.761 275.432 170.799 279.911Z" fill="#0078E8"/>
<path fill-rule="evenodd" clip-rule="evenodd" d="M254.826 264.977C264.897 259.729 273.364 256.908 280.652 254.513C291.652 250.898 296.453 250.276 312.806 246.168C319.285 244.541 328.386 242.164 339.377 238.978C341.36 238.403 342.99 236.241 342.991 234.176C343.007 209.706 343.022 185.234 343.038 160.764C343.039 158.531 341.254 156.328 339.069 155.868C326.196 153.155 313.322 150.442 300.448 147.729C299.051 152.469 297.964 156.488 296.743 162.327C296.217 164.844 295.667 167.505 295.148 170.352C303.464 172.121 311.779 173.89 320.095 175.659L319.945 221.103C307.833 223.143 297.753 225.42 290.246 227.295C278.843 230.144 270.884 232.165 260.478 236.339C249.86 240.598 242.188 244.896 239.376 246.513C231.666 250.948 221.556 257.624 210.884 267.396C216.982 272.498 221.791 277.323 227.74 283.46C237.863 274.679 247.428 268.832 254.826 264.977Z" fill="#93C9FE"/>
<path fill-rule="evenodd" clip-rule="evenodd" d="M283.191 184.117C283.682 172.771 285.472 164.028 287.042 156.518C289.411 145.185 291.274 140.716 295.893 124.5C297.723 118.075 300.214 109.005 302.951 97.8942C303.445 95.8902 302.387 93.3972 300.6 92.3642C279.415 80.1142 258.231 67.8652 237.046 55.6162C235.113 54.4992 232.313 54.9442 230.821 56.6052L204.463 85.9832C207.869 89.5632 210.806 92.5142 215.252 96.4902C217.169 98.2042 219.198 100.012 221.404 101.884C227.094 95.5672 232.784 89.2502 238.474 82.9332L277.755 105.785C273.465 117.294 270.398 127.162 268.268 134.601C265.034 145.901 262.804 153.804 261.216 164.903C259.596 176.228 259.482 185.021 259.476 188.264C259.462 197.159 260.189 209.253 263.315 223.382C270.782 220.651 277.366 218.899 285.655 216.816C283.112 203.658 282.831 192.451 283.191 184.117Z" fill="#0078E8"/>
</svg>
