<svg width="1650" height="500" viewBox="0 0 1650 500" fill="none" xmlns="http://www.w3.org/2000/svg">
<path d="M455.25 206.75V140H420.25V325H455.25V305.25C463.75 317.25 479.25 327.25 501 327.25C536.5 327.25 564.25 298.5 564.25 255.25C564.25 212 536.5 184.25 501 184.25C480 184.25 463.75 194 455.25 206.75ZM528.5 255.25C528.5 281.5 510.75 296.5 491.75 296.5C473 296.5 455.25 282 455.25 255.75C455.25 229.5 473 215 491.75 215C510.75 215 528.5 229 528.5 255.25ZM592.584 325H627.584V140H592.584V325ZM795.814 186.5H760.564V262.75C760.564 285 748.564 297 729.564 297C711.064 297 698.814 285 698.814 262.75V186.5H663.814V267.75C663.814 305.75 687.064 326.75 719.314 326.75C736.564 326.75 751.814 319.25 760.564 307.5V325H795.814V186.5ZM892.747 213C910.747 213 925.247 224.5 925.747 242.75H859.997C862.747 223.75 875.997 213 892.747 213ZM958.497 281.5H920.747C916.247 290.75 907.997 298.25 892.997 298.25C875.497 298.25 861.497 286.75 859.747 266.25H960.997C961.747 261.75 961.997 257.25 961.997 252.75C961.997 211.5 933.747 184.25 893.747 184.25C852.747 184.25 824.247 212 824.247 255.75C824.247 299.25 853.497 327.25 893.747 327.25C927.997 327.25 950.997 307 958.497 281.5ZM1025.44 206.5V186.5H990.444V391H1025.44V305.25C1033.94 316.5 1049.44 327.25 1071.19 327.25C1106.69 327.25 1134.44 298.5 1134.44 255.25C1134.44 212 1106.69 184.25 1071.19 184.25C1049.69 184.25 1033.69 194.75 1025.44 206.5ZM1098.69 255.25C1098.69 281.5 1080.94 296.5 1061.94 296.5C1043.19 296.5 1025.44 282 1025.44 255.75C1025.44 229.5 1043.19 215 1061.94 215C1080.94 215 1098.69 229 1098.69 255.25ZM1197.78 256C1197.78 229.25 1210.28 221.25 1231.03 221.25H1240.28V184.5C1221.03 184.5 1206.53 193.75 1197.78 208V186.5H1162.78V325H1197.78V256ZM1266.75 325H1301.75V186.5H1266.75V325ZM1284.5 170C1296.75 170 1306 161 1306 149.5C1306 138 1296.75 129 1284.5 129C1272 129 1263 138 1263 149.5C1263 161 1272 170 1284.5 170ZM1436.23 325H1471.23V243.75C1471.23 205.5 1448.23 184.5 1415.98 184.5C1398.23 184.5 1383.23 192 1374.23 203.75V186.5H1339.23V325H1374.23V248.5C1374.23 226.25 1386.48 214.25 1405.48 214.25C1423.98 214.25 1436.23 226.25 1436.23 248.5V325ZM1512.91 282C1512.91 313.75 1530.66 325 1557.16 325H1579.16V295.5H1562.91C1551.91 295.5 1548.16 291.5 1548.16 282.25V215.25H1579.16V186.5H1548.16V152.25H1512.91V186.5H1496.41V215.25H1512.91V282Z" fill="#333333"/>
<path fill-rule="evenodd" clip-rule="evenodd" d="M234.239 160.016C224.659 153.918 217.982 147.996 212.263 142.882C203.633 135.163 200.694 131.316 188.96 119.208C184.311 114.41 177.702 107.718 169.448 99.7917C167.959 98.3617 165.271 98.0317 163.482 99.0627C142.282 111.285 121.082 123.507 99.8823 135.728C97.9473 136.843 96.9323 139.492 97.6263 141.614L109.888 179.13C114.692 177.97 118.716 176.902 124.382 175.04C126.826 174.237 129.405 173.383 132.13 172.409C129.504 164.323 126.879 156.236 124.253 148.15L163.684 125.558C171.506 135.027 178.518 142.619 183.895 148.182C192.064 156.633 197.794 162.515 206.612 169.44C215.609 176.506 223.167 181.001 225.973 182.627C233.669 187.088 244.506 192.504 258.305 196.862C259.674 189.03 261.448 182.452 263.789 174.231C251.122 169.855 241.276 164.495 234.239 160.016Z" fill="#93C9FE"/>
<path fill-rule="evenodd" clip-rule="evenodd" d="M150.212 175.588C140.141 180.836 131.674 183.657 124.385 186.052C113.386 189.667 108.584 190.289 92.2324 194.397C85.7534 196.024 76.6524 198.401 65.6614 201.587C63.6784 202.161 62.0484 204.324 62.0474 206.388C62.0314 230.859 62.0154 255.33 62.0004 279.801C61.9984 282.033 63.7844 284.236 65.9684 284.697C78.8424 287.41 91.7164 290.123 104.589 292.836C105.987 288.096 107.074 284.077 108.295 278.238C108.821 275.721 109.371 273.06 109.89 270.213C101.574 268.444 93.2584 266.675 84.9434 264.906L85.0924 219.461C97.2054 217.422 107.285 215.145 114.791 213.27C126.195 210.421 134.153 208.4 144.56 204.226C155.178 199.966 162.85 195.669 165.661 194.052C173.372 189.617 183.482 182.941 194.154 173.169C188.056 168.067 183.246 163.242 177.298 157.105C167.174 165.886 157.61 171.733 150.212 175.588Z" fill="#0078E8"/>
<path fill-rule="evenodd" clip-rule="evenodd" d="M121.847 255.811C121.356 267.157 119.566 275.9 117.996 283.41C115.627 294.743 113.765 299.212 109.145 315.428C107.315 321.853 104.824 330.923 102.087 342.034C101.594 344.039 102.652 346.531 104.439 347.564C125.536 359.763 146.633 371.962 167.73 384.161C169.791 385.352 172.678 384.802 174.15 382.933C178.951 376.839 184.334 370.54 190.359 364.177C193.795 360.549 197.21 357.142 200.576 353.945C199.073 352.344 197.186 350.402 194.956 348.241C193.413 346.745 191.746 345.191 189.786 343.438C187.869 341.724 185.84 339.916 183.634 338.044C180.485 340.787 177.083 344.078 173.654 347.982C170.91 351.104 168.564 354.147 166.564 356.995L127.283 334.143C131.573 322.634 134.641 312.766 136.77 305.327C140.005 294.027 142.234 286.124 143.822 275.025C145.443 263.7 145.556 254.907 145.562 251.664C145.577 242.769 144.849 230.675 141.723 216.546C134.256 219.277 127.672 221.03 119.383 223.113C121.927 236.27 122.208 247.477 121.847 255.811Z" fill="#93C9FE"/>
<path fill-rule="evenodd" clip-rule="evenodd" d="M176.799 320.91C186.379 327.008 193.055 332.93 198.774 338.044C207.404 345.763 210.344 349.61 222.078 361.719C226.727 366.516 233.336 373.208 241.59 381.134C243.079 382.564 245.767 382.894 247.555 381.863C268.756 369.641 289.956 357.419 311.156 345.198C313.091 344.083 314.105 341.434 313.412 339.312C309.324 326.807 305.237 314.302 301.15 301.797C296.346 302.956 292.322 304.024 286.655 305.887C284.212 306.689 281.632 307.543 278.908 308.517C281.534 316.603 284.159 324.69 286.785 332.776L247.354 355.368C239.532 345.899 232.52 338.308 227.142 332.744C218.973 324.293 213.244 318.411 204.426 311.486C195.428 304.42 187.871 299.925 185.065 298.299C177.369 293.838 166.532 288.422 152.733 284.064C151.364 291.897 149.59 298.474 147.249 306.695C159.916 311.071 169.761 316.431 176.799 320.91Z" fill="#0078E8"/>
<path fill-rule="evenodd" clip-rule="evenodd" d="M260.826 305.976C270.897 300.728 279.364 297.907 286.652 295.512C297.652 291.897 302.453 291.275 318.806 287.167C325.285 285.54 334.386 283.163 345.377 279.977C347.36 279.402 348.99 277.24 348.991 275.175C349.007 250.705 349.022 226.233 349.038 201.763C349.039 199.53 347.254 197.327 345.069 196.867C332.196 194.154 319.322 191.441 306.448 188.728C305.051 193.468 303.964 197.487 302.743 203.326C302.217 205.843 301.667 208.504 301.148 211.351C309.464 213.12 317.779 214.889 326.095 216.658L325.945 262.102C313.833 264.142 303.753 266.419 296.246 268.294C284.843 271.143 276.884 273.164 266.478 277.338C255.86 281.597 248.188 285.895 245.376 287.512C237.666 291.947 227.556 298.623 216.884 308.395C222.982 313.497 227.791 318.322 233.74 324.459C243.863 315.678 253.428 309.831 260.826 305.976Z" fill="#93C9FE"/>
<path fill-rule="evenodd" clip-rule="evenodd" d="M289.191 225.117C289.682 213.771 291.472 205.028 293.042 197.518C295.411 186.185 297.274 181.716 301.893 165.5C303.723 159.075 306.214 150.005 308.951 138.894C309.445 136.89 308.387 134.397 306.6 133.364C285.415 121.114 264.231 108.865 243.046 96.6157C241.113 95.4987 238.313 95.9437 236.821 97.6047L210.463 126.983C213.869 130.563 216.806 133.514 221.252 137.49C223.169 139.204 225.198 141.012 227.404 142.884C233.094 136.567 238.784 130.25 244.474 123.933L283.755 146.785C279.465 158.294 276.398 168.162 274.268 175.601C271.034 186.901 268.804 194.804 267.216 205.903C265.596 217.228 265.482 226.021 265.476 229.264C265.462 238.159 266.189 250.253 269.315 264.382C276.782 261.651 283.366 259.899 291.655 257.816C289.112 244.658 288.831 233.451 289.191 225.117Z" fill="#0078E8"/>
</svg>
