<svg width="1650" height="500" viewBox="0 0 1650 500" fill="none" xmlns="http://www.w3.org/2000/svg">
<rect width="1650" height="500" fill="#0078E8"/>
<path d="M455.25 206.75C459.75 200.083 465.917 194.667 473.75 190.5C481.75 186.333 490.833 184.25 501 184.25C512.833 184.25 523.5 187.167 533 193C542.667 198.833 550.25 207.167 555.75 218C561.417 228.667 564.25 241.083 564.25 255.25C564.25 269.417 561.417 282 555.75 293C550.25 303.833 542.667 312.25 533 318.25C523.5 324.25 512.833 327.25 501 327.25C490.667 327.25 481.583 325.25 473.75 321.25C466.083 317.083 459.917 311.75 455.25 305.25V325H420.25V140H455.25V206.75ZM528.5 255.25C528.5 246.917 526.75 239.75 523.25 233.75C519.917 227.583 515.417 222.917 509.75 219.75C504.25 216.583 498.25 215 491.75 215C485.417 215 479.417 216.667 473.75 220C468.25 223.167 463.75 227.833 460.25 234C456.917 240.167 455.25 247.417 455.25 255.75C455.25 264.083 456.917 271.333 460.25 277.5C463.75 283.667 468.25 288.417 473.75 291.75C479.417 294.917 485.417 296.5 491.75 296.5C498.25 296.5 504.25 294.833 509.75 291.5C515.417 288.167 519.917 283.417 523.25 277.25C526.75 271.083 528.5 263.75 528.5 255.25ZM627.584 140V325H592.584V140H627.584ZM795.814 186.5V325H760.564V307.5C756.064 313.5 750.147 318.25 742.814 321.75C735.647 325.083 727.814 326.75 719.314 326.75C708.48 326.75 698.897 324.5 690.564 320C682.23 315.333 675.647 308.583 670.814 299.75C666.147 290.75 663.814 280.083 663.814 267.75V186.5H698.814V262.75C698.814 273.75 701.564 282.25 707.064 288.25C712.564 294.083 720.064 297 729.564 297C739.23 297 746.814 294.083 752.314 288.25C757.814 282.25 760.564 273.75 760.564 262.75V186.5H795.814ZM961.997 252.75C961.997 257.75 961.664 262.25 960.997 266.25H859.747C860.58 276.25 864.08 284.083 870.247 289.75C876.414 295.417 883.997 298.25 892.997 298.25C905.997 298.25 915.247 292.667 920.747 281.5H958.497C954.497 294.833 946.83 305.833 935.497 314.5C924.164 323 910.247 327.25 893.747 327.25C880.414 327.25 868.414 324.333 857.747 318.5C847.247 312.5 838.997 304.083 832.997 293.25C827.164 282.417 824.247 269.917 824.247 255.75C824.247 241.417 827.164 228.833 832.997 218C838.83 207.167 846.997 198.833 857.497 193C867.997 187.167 880.08 184.25 893.747 184.25C906.914 184.25 918.664 187.083 928.997 192.75C939.497 198.417 947.58 206.5 953.247 217C959.08 227.333 961.997 239.25 961.997 252.75ZM925.747 242.75C925.58 233.75 922.33 226.583 915.997 221.25C909.664 215.75 901.914 213 892.747 213C884.08 213 876.747 215.667 870.747 221C864.914 226.167 861.33 233.417 859.997 242.75H925.747ZM1025.44 206.5C1029.94 200.167 1036.11 194.917 1043.94 190.75C1051.94 186.417 1061.03 184.25 1071.19 184.25C1083.03 184.25 1093.69 187.167 1103.19 193C1112.86 198.833 1120.44 207.167 1125.94 218C1131.61 228.667 1134.44 241.083 1134.44 255.25C1134.44 269.417 1131.61 282 1125.94 293C1120.44 303.833 1112.86 312.25 1103.19 318.25C1093.69 324.25 1083.03 327.25 1071.19 327.25C1061.03 327.25 1052.03 325.167 1044.19 321C1036.53 316.833 1030.28 311.583 1025.44 305.25V391H990.444V186.5H1025.44V206.5ZM1098.69 255.25C1098.69 246.917 1096.94 239.75 1093.44 233.75C1090.11 227.583 1085.61 222.917 1079.94 219.75C1074.44 216.583 1068.44 215 1061.94 215C1055.61 215 1049.61 216.667 1043.94 220C1038.44 223.167 1033.94 227.833 1030.44 234C1027.11 240.167 1025.44 247.417 1025.44 255.75C1025.44 264.083 1027.11 271.333 1030.44 277.5C1033.94 283.667 1038.44 288.417 1043.94 291.75C1049.61 294.917 1055.61 296.5 1061.94 296.5C1068.44 296.5 1074.44 294.833 1079.94 291.5C1085.61 288.167 1090.11 283.417 1093.44 277.25C1096.94 271.083 1098.69 263.75 1098.69 255.25ZM1197.78 208C1202.28 200.667 1208.11 194.917 1215.28 190.75C1222.61 186.583 1230.94 184.5 1240.28 184.5V221.25H1231.03C1220.03 221.25 1211.69 223.833 1206.03 229C1200.53 234.167 1197.78 243.167 1197.78 256V325H1162.78V186.5H1197.78V208ZM1284.5 170C1278.33 170 1273.17 168.083 1269 164.25C1265 160.25 1263 155.333 1263 149.5C1263 143.667 1265 138.833 1269 135C1273.17 131 1278.33 129 1284.5 129C1290.67 129 1295.75 131 1299.75 135C1303.92 138.833 1306 143.667 1306 149.5C1306 155.333 1303.92 160.25 1299.75 164.25C1295.75 168.083 1290.67 170 1284.5 170ZM1301.75 186.5V325H1266.75V186.5H1301.75ZM1415.98 184.5C1432.48 184.5 1445.81 189.75 1455.98 200.25C1466.15 210.583 1471.23 225.083 1471.23 243.75V325H1436.23V248.5C1436.23 237.5 1433.48 229.083 1427.98 223.25C1422.48 217.25 1414.98 214.25 1405.48 214.25C1395.81 214.25 1388.15 217.25 1382.48 223.25C1376.98 229.083 1374.23 237.5 1374.23 248.5V325H1339.23V186.5H1374.23V203.75C1378.9 197.75 1384.81 193.083 1391.98 189.75C1399.31 186.25 1407.31 184.5 1415.98 184.5ZM1548.16 215.25V282.25C1548.16 286.917 1549.25 290.333 1551.41 292.5C1553.75 294.5 1557.58 295.5 1562.91 295.5H1579.16V325H1557.16C1527.66 325 1512.91 310.667 1512.91 282V215.25H1496.41V186.5H1512.91V152.25H1548.16V186.5H1579.16V215.25H1548.16Z" fill="white"/>
<path fill-rule="evenodd" clip-rule="evenodd" d="M234.239 160.016C224.659 153.918 217.982 147.996 212.263 142.882C203.633 135.163 200.694 131.316 188.96 119.208C184.311 114.41 177.702 107.718 169.448 99.7917C167.959 98.3617 165.271 98.0317 163.482 99.0627C142.282 111.285 121.082 123.507 99.8823 135.728C97.9473 136.843 96.9323 139.492 97.6263 141.614L109.888 179.13C114.692 177.97 118.716 176.902 124.382 175.04C126.826 174.237 129.405 173.383 132.13 172.409C129.504 164.323 126.879 156.236 124.253 148.15L163.684 125.558C171.506 135.027 178.518 142.619 183.895 148.182C192.064 156.633 197.794 162.515 206.612 169.44C215.609 176.506 223.167 181.001 225.973 182.627C233.669 187.088 244.506 192.504 258.305 196.862C259.674 189.03 261.448 182.452 263.789 174.231C251.122 169.855 241.276 164.495 234.239 160.016Z" fill="white"/>
<path fill-rule="evenodd" clip-rule="evenodd" d="M150.212 175.588C140.141 180.836 131.674 183.657 124.385 186.052C113.386 189.667 108.584 190.289 92.2324 194.397C85.7534 196.024 76.6524 198.401 65.6614 201.587C63.6784 202.161 62.0484 204.324 62.0474 206.388C62.0314 230.859 62.0154 255.33 62.0004 279.801C61.9984 282.033 63.7844 284.236 65.9684 284.697C78.8424 287.41 91.7164 290.123 104.589 292.836C105.987 288.096 107.074 284.077 108.295 278.238C108.821 275.721 109.371 273.06 109.89 270.213C101.574 268.444 93.2584 266.675 84.9434 264.906L85.0924 219.461C97.2054 217.422 107.285 215.145 114.791 213.27C126.195 210.421 134.153 208.4 144.56 204.226C155.178 199.966 162.85 195.669 165.661 194.052C173.372 189.617 183.482 182.941 194.154 173.169C188.056 168.067 183.246 163.242 177.298 157.105C167.174 165.886 157.61 171.733 150.212 175.588Z" fill="white"/>
<path fill-rule="evenodd" clip-rule="evenodd" d="M121.847 255.811C121.356 267.157 119.566 275.9 117.996 283.41C115.627 294.743 113.765 299.212 109.145 315.428C107.315 321.853 104.824 330.923 102.087 342.034C101.594 344.039 102.652 346.531 104.439 347.564C125.536 359.763 146.633 371.962 167.73 384.161C169.791 385.352 172.678 384.802 174.15 382.933C178.951 376.839 184.334 370.54 190.359 364.177C193.795 360.549 197.21 357.142 200.576 353.945C199.073 352.344 197.186 350.402 194.956 348.241C193.413 346.745 191.746 345.191 189.786 343.438C187.869 341.724 185.84 339.916 183.634 338.044C180.485 340.787 177.083 344.078 173.654 347.982C170.91 351.104 168.564 354.147 166.564 356.995L127.283 334.143C131.573 322.634 134.641 312.766 136.77 305.327C140.005 294.027 142.234 286.124 143.822 275.025C145.443 263.7 145.556 254.907 145.562 251.664C145.577 242.769 144.849 230.675 141.723 216.546C134.256 219.277 127.672 221.03 119.383 223.113C121.927 236.27 122.208 247.477 121.847 255.811Z" fill="white"/>
<path fill-rule="evenodd" clip-rule="evenodd" d="M176.799 320.91C186.379 327.008 193.055 332.93 198.774 338.044C207.404 345.763 210.344 349.61 222.078 361.719C226.727 366.516 233.336 373.208 241.59 381.134C243.079 382.564 245.767 382.894 247.555 381.863C268.756 369.641 289.956 357.419 311.156 345.198C313.091 344.083 314.105 341.434 313.412 339.312C309.324 326.807 305.237 314.302 301.15 301.797C296.346 302.956 292.322 304.024 286.655 305.887C284.212 306.689 281.632 307.543 278.908 308.517C281.534 316.603 284.159 324.69 286.785 332.776L247.354 355.368C239.532 345.899 232.52 338.308 227.142 332.744C218.973 324.293 213.244 318.411 204.426 311.486C195.428 304.42 187.871 299.925 185.065 298.299C177.369 293.838 166.532 288.422 152.733 284.064C151.364 291.897 149.59 298.474 147.249 306.695C159.916 311.071 169.761 316.431 176.799 320.91Z" fill="white"/>
<path fill-rule="evenodd" clip-rule="evenodd" d="M260.826 305.976C270.897 300.728 279.364 297.907 286.652 295.512C297.652 291.897 302.453 291.275 318.806 287.167C325.285 285.54 334.386 283.163 345.377 279.977C347.36 279.402 348.99 277.24 348.991 275.175C349.007 250.705 349.022 226.233 349.038 201.763C349.039 199.53 347.254 197.327 345.069 196.867C332.196 194.154 319.322 191.441 306.448 188.728C305.051 193.468 303.964 197.487 302.743 203.326C302.217 205.843 301.667 208.504 301.148 211.351C309.464 213.12 317.779 214.889 326.095 216.658L325.945 262.102C313.833 264.142 303.753 266.419 296.246 268.294C284.843 271.143 276.884 273.164 266.478 277.338C255.86 281.597 248.188 285.895 245.376 287.512C237.666 291.947 227.556 298.623 216.884 308.395C222.982 313.497 227.791 318.322 233.74 324.459C243.863 315.678 253.428 309.831 260.826 305.976Z" fill="white"/>
<path fill-rule="evenodd" clip-rule="evenodd" d="M289.191 225.117C289.682 213.771 291.472 205.028 293.042 197.518C295.411 186.185 297.274 181.716 301.893 165.5C303.723 159.075 306.214 150.005 308.951 138.894C309.445 136.89 308.387 134.397 306.6 133.364C285.415 121.114 264.231 108.865 243.046 96.6157C241.113 95.4987 238.313 95.9437 236.821 97.6047L210.463 126.983C213.869 130.563 216.806 133.514 221.252 137.49C223.169 139.204 225.198 141.012 227.404 142.884C233.094 136.567 238.784 130.25 244.474 123.933L283.755 146.785C279.465 158.294 276.398 168.162 274.268 175.601C271.034 186.901 268.804 194.804 267.216 205.903C265.596 217.228 265.482 226.021 265.476 229.264C265.462 238.159 266.189 250.253 269.315 264.382C276.782 261.651 283.366 259.899 291.655 257.816C289.112 244.658 288.831 233.451 289.191 225.117Z" fill="white"/>
</svg>
